# xmcd CD database file
#
# Track frame offsets:
# 150
# 12397
# 25527
# 35295
# 83022
# 94722
# 102972
# 115237
# 125017
# 136550
# 148707
# 157797
# 169655
# 181642
# 208459
# 240437
# 260095
# 274707
# 286205
# 302232
#
# Disc length: 4295 seconds
# Revision: 2
# Processed by: cddbd v1.5.2PL0 Copyright (c) Steve Scherf et al.
# Submitted via: MusicBin 0.4
#
DISCID=0610c514,0710c314
DTITLE=Chuck Berry - The Chess Box [CD3, 1964-1973)
DYEAR=1988
DGENRE=Rock and Roll
TTITLE0=No Particular Place To Go
TTITLE1=Liverpool Drive
TTITLE2=You Two
TTITLE3=Chuck's Beat
TTITLE4=Little Marie
TTITLE5=Dear Dad
TTITLE6=Sad Day, Long Night
TTITLE7=It's My Own Business
TTITLE8=It Wasn't Me
TTITLE9=Ramona Say Yes
TTITLE10=Viva Viva Rock 'n' Roll
TTITLE11=Tulane
TTITLE12=Have Mercy Judge
TTITLE13=My Dream
TTITLE14=Reelin' And Rockin' (Live)
TTITLE15=My Ding-A-Ling (Single Edit, Live)
TTITLE16=Johny B. Goode (Live)
TTITLE17=A Deuce
TTITLE18=Woodpecker
TTITLE19=Bio
EXTD=
EXTT0=\nYEAR: 1964
EXTT1=\nYEAR: 1964
EXTT2=\nYEAR: 1964
EXTT3=\nYEAR: 1964
EXTT4=\nYEAR: 1964
EXTT5=\nYEAR: 1964
EXTT6=\nYEAR: 1965
EXTT7=\nYEAR: 1965
EXTT8=\nYEAR: 1965
EXTT9=\nYEAR: 1966
EXTT10=\nYEAR: 1966
EXTT11=\nYEAR: 1969
EXTT12=\nYEAR: 1969
EXTT13=\nYEAR: 1971
EXTT14=\nYEAR: 1972
EXTT15=\nYEAR: 1972
EXTT16=\nYEAR: 1972
EXTT17=\nYEAR: 1973
EXTT18=\nYEAR: 1973
EXTT19=\nYEAR: 1973
PLAYORDER=
